<?xml version="1.0" encoding="utf-8"?>
<!-- Generator: Adobe Illustrator 24.0.2, SVG Export Plug-In . SVG Version: 6.00 Build 0)  -->
<svg version="1.1" id="Layer_1" xmlns="http://www.w3.org/2000/svg" xmlns:xlink="http://www.w3.org/1999/xlink" x="0px" y="0px"
	 viewBox="0 0 150 96" style="enable-background:new 0 0 150 96;" xml:space="preserve">
<style type="text/css">
	.st0{fill-rule:evenodd;clip-rule:evenodd;fill:#FFD600;stroke:#FFD600;stroke-width:1.2207;stroke-miterlimit:4.8828;}
</style>
<g id="SVGRepo_bgCarrier">
</g>
<g id="SVGRepo_tracerCarrier">
</g>
<g id="SVGRepo_iconCarrier">
	<g>
		<path class="st0" d="M118.8,45.1c0,12.1-4.3,22.4-12.8,31c-8.5,8.5-18.9,12.8-31,12.8c-12.1,0-22.4-4.3-30.9-12.8
			c-8.5-8.5-12.8-18.9-12.8-31c0-12.1,4.3-22.4,12.8-30.9C52.6,5.6,63,1.3,75,1.3c12.1,0,22.4,4.3,31,12.8
			C114.5,22.7,118.8,33,118.8,45.1L118.8,45.1L118.8,45.1L118.8,45.1z M20,37c3.8-2.6,5.8-6.1,5.4-13.9V3c0-2.8-5.2-3.2-5.4,0
			l-0.2,16.4c0,3.1-4.6,3.2-4.6,0l0.2-16.9c-0.1-3-4.9-3.3-5,0c0,4.7-0.2,12.2-0.2,16.9c0.2,3-4,3.4-3.9,0L6.5,2.5
			c-0.1-2.3-2.6-3.1-4.3-2C0.3,1.6,0.7,4,0.6,5.9L0,25.2c0.1,5.6,1.6,10.2,6,12.1c0.7,0.3,1.6,0.5,2.7,0.7L7.1,85.1
			C7,87.9,9.3,90.2,12,90.2h0.6c3,0,5.6-2.6,5.5-5.7L16.8,38C18.2,37.8,19.3,37.5,20,37L20,37z M130.3,83.7l-0.1-42.3
			C115.4,32.9,120.1-0.2,135,0c18,0.2,20.2,37.2,4.7,41.3l1.1,42.6C141,92,130.3,92.7,130.3,83.7L130.3,83.7z M100.5,45.1
			c0,7.1-2.5,13.1-7.5,18.1c-5,5-11,7.5-18.1,7.5c-7,0-13-2.5-18-7.5c-5-5-7.5-11-7.5-18.1c0-7,2.5-13,7.5-18c5-5,11-7.5,18-7.5
			C89.1,19.6,100.5,30.9,100.5,45.1L100.5,45.1L100.5,45.1z M106.5,45.1c0-8.7-3.1-16.1-9.2-22.2c-6.1-6.1-13.6-9.2-22.3-9.2
			c-8.7,0-16.1,3.1-22.2,9.2c-6.1,6.1-9.2,13.5-9.2,22.2c0,8.7,3.1,16.1,9.2,22.3c6.1,6.2,13.5,9.2,22.2,9.2
			c8.7,0,16.1-3.1,22.3-9.2C103.4,61.2,106.5,53.7,106.5,45.1L106.5,45.1L106.5,45.1L106.5,45.1z"/>
	</g>
</g>
</svg>
